<svg xmlns="http://www.w3.org/2000/svg" viewBox="0 0 80.13 50.25"><defs><style>.cls-1{fill:#4b78af;}.cls-2{fill:#fff;}</style></defs><title>Bankid_mobil</title><g id="Layer_1" data-name="Layer 1"><rect class="cls-1" y="-0.01" width="80.13" height="50.25"/></g><g id="Layer_2" data-name="Layer 2"><path class="cls-2" d="M16.32,21.72h-4a.22.22,0,0,0-.22.22V23a.22.22,0,0,0,.22.22h4a.22.22,0,0,0,.22-.22V21.94A.22.22,0,0,0,16.32,21.72Z"/><path class="cls-2" d="M16.32,24.66h-4a.22.22,0,0,0-.22.22V26a.22.22,0,0,0,.22.22h4a.22.22,0,0,0,.22-.22V24.89A.22.22,0,0,0,16.32,24.66Z"/><path class="cls-2" d="M22.22,27.61h-4a.22.22,0,0,0-.22.22v1.07a.22.22,0,0,0,.22.22h4a.22.22,0,0,0,.22-.22V27.83A.23.23,0,0,0,22.22,27.61Z"/><path class="cls-2" d="M10.45,27.61h-4a.22.22,0,0,0-.22.22v1.07a.22.22,0,0,0,.22.22h4a.22.22,0,0,0,.22-.22V27.83A.22.22,0,0,0,10.45,27.61Z"/><path class="cls-2" d="M22.22,21.72h-4a.22.22,0,0,0-.22.22V23a.22.22,0,0,0,.22.22h4a.22.22,0,0,0,.22-.22V21.94A.23.23,0,0,0,22.22,21.72Z"/><path class="cls-2" d="M10.45,24.66h-4a.22.22,0,0,0-.22.22V26a.22.22,0,0,0,.22.22h4a.22.22,0,0,0,.22-.22V24.89A.22.22,0,0,0,10.45,24.66Z"/><path class="cls-2" d="M10.45,18.77h-4a.22.22,0,0,0-.22.22v1.07a.22.22,0,0,0,.22.22h4a.22.22,0,0,0,.22-.22V19A.23.23,0,0,0,10.45,18.77Z"/><path class="cls-2" d="M22.22,18.77h-4A.22.22,0,0,0,18,19v1.07a.22.22,0,0,0,.22.22h4a.22.22,0,0,0,.22-.22V19A.24.24,0,0,0,22.22,18.77Z"/><path class="cls-2" d="M49,21.75H44.37a.21.21,0,0,0-.21.21v6.92a.21.21,0,0,0,.21.21h1a.21.21,0,0,0,.21-.21V23.32c0-.06,0-.1.11-.1H49a1,1,0,0,1,.77.32,1,1,0,0,1,.32.75v4.59a.21.21,0,0,0,.21.21h1a.21.21,0,0,0,.21-.21V24.3A2.57,2.57,0,0,0,49,21.75Zm-7.06.75a2.47,2.47,0,0,1,.75,1.79v4.39a.43.43,0,0,1-.43.42H37.55a2.25,2.25,0,0,1-2.24-2.24,2.18,2.18,0,0,1,2.24-2.16h3.52a.11.11,0,0,0,.11-.1v-.3a1.09,1.09,0,0,0-1.07-1.07H36.31A.21.21,0,0,1,36.1,23V22a.21.21,0,0,1,.21-.21h3.81A2.39,2.39,0,0,1,41.91,22.5Zm-.72,3.76a.11.11,0,0,0-.11-.11H37.51a.73.73,0,0,0-.74.75.77.77,0,0,0,.77.72h3.54a.11.11,0,0,0,.11-.1ZM64,18.8H63a.21.21,0,0,0-.21.21v9.86a.21.21,0,0,0,.21.21h1a.21.21,0,0,0,.21-.21V19A.2.2,0,0,0,64,18.8Zm10.37,4.08V25c0,2.63-1.44,4.07-4.05,4.07H66.23a.21.21,0,0,1-.21-.21V19a.21.21,0,0,1,.21-.21h4.1A3.7,3.7,0,0,1,74.41,22.89Zm-1.5-.11a2.25,2.25,0,0,0-2.5-2.5H67.59a.11.11,0,0,0-.11.11v7.14a.11.11,0,0,0,.11.11h2.82a2.23,2.23,0,0,0,2.5-2.48ZM33.52,22.5a2.47,2.47,0,0,1,.75,1.79v2.26a2.48,2.48,0,0,1-.75,1.81,2.45,2.45,0,0,1-1.79.74H27.13a.21.21,0,0,1-.21-.21V19a.21.21,0,0,1,.21-.21h1a.21.21,0,0,1,.21.21v2.61a.11.11,0,0,0,.11.11h3.23A2.47,2.47,0,0,1,33.52,22.5ZM32.8,24.3a1,1,0,0,0-.32-.75,1.05,1.05,0,0,0-.77-.32H28.49a.11.11,0,0,0-.11.1v4.23c0,.06,0,.1.11.1h3.22a1,1,0,0,0,.77-.32,1,1,0,0,0,.32-.75Z"/><path class="cls-2" d="M54.68,24.86h0a.12.12,0,0,1-.13,0s-.06-.06-.08-.11V19a.21.21,0,0,0-.21-.21h-1A.21.21,0,0,0,53,19v9.86a.21.21,0,0,0,.21.21h1a.21.21,0,0,0,.21-.21V26.17a.1.1,0,0,1,.08-.1.12.12,0,0,1,.13,0h0l3.41,2.95a.26.26,0,0,0,.14,0h1.42a.21.21,0,0,0,.21-.21.28.28,0,0,0-.06-.16l-3.68-3.17h0a.12.12,0,0,1,0-.16l3.78-3.27A.19.19,0,0,0,60,22a.21.21,0,0,0-.21-.21H58.34a.22.22,0,0,0-.14,0Z"/><path class="cls-2" d="M45.83,31.08H44.37a.08.08,0,0,0-.08.08v3.71a.08.08,0,0,0,.08.08h.53a.08.08,0,0,0,.08-.08V33.79a.08.08,0,0,1,.08-.08h.69c.85,0,1.55-.45,1.55-1.33v0A1.3,1.3,0,0,0,45.83,31.08Zm.77,1.33c0,.4-.32.69-.83.69H45A.08.08,0,0,1,45,33V31.77a.08.08,0,0,1,.08-.08h.72c.51,0,.83.26.83.72Z"/><path class="cls-2" d="M62,31a2,2,0,0,0-2,2v0a2,2,0,0,0,2,2,2,2,0,0,0,2-2v0A2,2,0,0,0,62,31Zm1.31,2A1.31,1.31,0,0,1,62,34.4,1.32,1.32,0,0,1,60.7,33v0A1.31,1.31,0,0,1,62,31.64,1.34,1.34,0,0,1,63.33,33Z"/><path class="cls-2" d="M67.69,33a.08.08,0,0,1,0-.13.88.88,0,0,0,.42-.78v0a.92.92,0,0,0-.26-.64,1.4,1.4,0,0,0-1-.34H65.16a.08.08,0,0,0-.08.08v3.73a.08.08,0,0,0,.08.08h1.71c.86,0,1.42-.37,1.42-1.06v0A.89.89,0,0,0,67.69,33Zm-1.92-1.23a.08.08,0,0,1,.08-.08h.9c.43,0,.67.19.67.5v0c0,.35-.29.53-.74.53h-.85a.08.08,0,0,1-.08-.08v-.88Zm1.87,2c0,.35-.29.53-.75.53H65.83a.08.08,0,0,1-.08-.08v-.91a.08.08,0,0,1,.08-.08h1c.53,0,.8.21.8.54Z"/><path class="cls-2" d="M69.54,35h.53a.08.08,0,0,0,.08-.08V31.15a.08.08,0,0,0-.08-.08h-.53a.08.08,0,0,0-.08.08v3.73A.08.08,0,0,0,69.54,35Z"/><path class="cls-2" d="M72.17,34.27V31.16a.08.08,0,0,0-.08-.08h-.53a.08.08,0,0,0-.08.08v3.71a.08.08,0,0,0,.08.08h2.56a.08.08,0,0,0,.08-.08v-.46a.08.08,0,0,0-.08-.08H72.23A.07.07,0,0,1,72.17,34.27Z"/><path class="cls-2" d="M51.77,34.86,50.3,31.48a.76.76,0,0,0,.29-.59h0a.75.75,0,0,0-.78-.75.76.76,0,0,0-.8.75h0a.76.76,0,0,0,.29.59l-1.47,3.38a.07.07,0,0,0,.06.1h.53s.06,0,.06,0l.35-.85s0,0,.06,0h1.73s.06,0,.06,0l.35.85s0,0,.06,0h.56C51.76,35,51.79,34.91,51.77,34.86Zm-2.31-4a.33.33,0,0,1,.34-.34.34.34,0,0,1,.34.34h0a.34.34,0,0,1-.67,0Zm.88,2.53h-1.1s-.1,0-.06-.1L49.72,32c0-.06.11-.06.13,0l.56,1.28A.07.07,0,0,1,50.35,33.42Z"/><path class="cls-2" d="M58.86,31.08h-.61a.08.08,0,0,0-.06,0l-1.09,1.7a.07.07,0,0,1-.13,0l-1.09-1.7a.08.08,0,0,0-.06,0h-.61a.08.08,0,0,0-.08.08v3.71a.08.08,0,0,0,.08.08h.51a.08.08,0,0,0,.08-.08V32.43a.08.08,0,0,1,.14,0l1,1.54a.07.07,0,0,0,.13,0h0l1-1.54a.08.08,0,0,1,.14,0v2.45a.08.08,0,0,0,.08.08h.53a.08.08,0,0,0,.08-.08V31.16S58.91,31.08,58.86,31.08Z"/></g></svg>