<svg id="Layer_1" data-name="Layer 1" xmlns="http://www.w3.org/2000/svg" viewBox="0 0 80.13 50.25"><defs><style>.cls-1{fill:#4b78af;}.cls-2{fill:#fff;}</style></defs><title>Bankid</title><rect class="cls-1" y="-0.01" width="80.13" height="50.25"/><path class="cls-2" d="M48.81,22.89H44.18a.22.22,0,0,0-.22.22v7a.22.22,0,0,0,.22.22h1a.22.22,0,0,0,.22-.22V24.48a.11.11,0,0,1,.11-.1h3.26a1.09,1.09,0,0,1,1.09,1.09V30.1a.22.22,0,0,0,.22.22h1a.22.22,0,0,0,.22-.22V25.46a2.57,2.57,0,0,0-2.57-2.57Zm-7.13.75a2.49,2.49,0,0,1,.75,1.82v4.43a.43.43,0,0,1-.44.42H37.29A2.27,2.27,0,0,1,35,28a2.2,2.2,0,0,1,2.26-2.18h3.56a.11.11,0,0,0,.11-.1v-.3a1.09,1.09,0,0,0-1.09-1.08H36a.22.22,0,0,1-.22-.22v-1a.22.22,0,0,1,.22-.22h3.84A2.49,2.49,0,0,1,41.69,23.64ZM41,27.45a.11.11,0,0,0-.11-.11h-3.6a.74.74,0,0,0-.74.76.77.77,0,0,0,.78.72h3.57a.11.11,0,0,0,.11-.1ZM64,19.92H63a.22.22,0,0,0-.22.22v10a.22.22,0,0,0,.22.22h1a.22.22,0,0,0,.22-.22v-10A.22.22,0,0,0,64,19.92ZM74.5,24V26.2c0,2.66-1.46,4.11-4.1,4.11H66.23A.22.22,0,0,1,66,30.1v-10a.22.22,0,0,1,.22-.22h4.14A3.75,3.75,0,0,1,74.5,24ZM73,23.93a2.28,2.28,0,0,0-2.53-2.53H67.61a.11.11,0,0,0-.11.11v7.21a.11.11,0,0,0,.11.11h2.84A2.25,2.25,0,0,0,73,26.31Zm-39.77-.28A2.49,2.49,0,0,1,34,25.46v2.28a2.52,2.52,0,0,1-.75,1.83,2.47,2.47,0,0,1-1.82.74H26.75a.22.22,0,0,1-.22-.22v-10a.22.22,0,0,1,.22-.22h1a.22.22,0,0,1,.22.22v2.64a.11.11,0,0,0,.11.11h3.26A2.49,2.49,0,0,1,33.21,23.64Zm-.73,1.82a1,1,0,0,0-.32-.77,1,1,0,0,0-.77-.32H28.14a.11.11,0,0,0-.11.1v4.27a.11.11,0,0,0,.11.1h3.25a1,1,0,0,0,.77-.32,1,1,0,0,0,.32-.77Z"/><path class="cls-2" d="M54.59,26h0a.12.12,0,0,1-.2-.08V20.14a.22.22,0,0,0-.22-.22h-1a.22.22,0,0,0-.22.22v10a.22.22,0,0,0,.22.22h1a.22.22,0,0,0,.22-.22V27.36a.12.12,0,0,1,.2-.08h0l3.44,3a.22.22,0,0,0,.15.05h1.61a.22.22,0,0,0,.15-.38l-3.71-3.21h0a.11.11,0,0,1,0-.16L60,23.27a.22.22,0,0,0-.15-.38H58.28a.22.22,0,0,0-.15.05Z"/><rect class="cls-2" x="11.56" y="22.86" width="4.51" height="1.54" rx="0.23" ry="0.23"/><rect class="cls-2" x="11.56" y="25.83" width="4.51" height="1.54" rx="0.23" ry="0.23"/><rect class="cls-2" x="17.51" y="28.8" width="4.51" height="1.54" rx="0.23" ry="0.23"/><rect class="cls-2" x="5.63" y="28.8" width="4.51" height="1.54" rx="0.23" ry="0.23"/><rect class="cls-2" x="17.5" y="22.86" width="4.51" height="1.54" rx="0.23" ry="0.23"/><rect class="cls-2" x="5.63" y="25.83" width="4.51" height="1.54" rx="0.23" ry="0.23"/><rect class="cls-2" x="5.63" y="19.89" width="4.51" height="1.54" rx="0.23" ry="0.23"/><rect class="cls-2" x="17.51" y="19.89" width="4.51" height="1.54" rx="0.23" ry="0.23"/></svg>