<svg id="Layer_1" data-name="Layer 1" xmlns="http://www.w3.org/2000/svg" viewBox="0 0 82.83 51.83"><defs><style>.cls-1{fill:#005d7e;}.cls-2,.cls-3,.cls-4,.cls-5,.cls-6,.cls-7{fill:none;}.cls-3,.cls-4,.cls-5,.cls-6,.cls-7{stroke:#638fac;}.cls-3{stroke-width:0.17px;}.cls-4{stroke-width:0.34px;}.cls-5{stroke-width:0.5px;}.cls-6{stroke-width:0.67px;}.cls-7{stroke-width:0.84px;}.cls-8{fill:#fff;}</style></defs><title>buypass</title><rect class="cls-1" y="-1" width="82.83" height="53.67" rx="1.37" ry="1.37"/><rect class="cls-2" x="1.96" y="3.84" width="79.71" height="44.23"/><path class="cls-3" d="M46.68,6.76c-9.93-.84-17.15,3.5-16.88,9,.21,4.4,4.43,6.49,8.58,6.64h0a14.33,14.33,0,0,0,3.56-.5c4.78-1.51,11.81-.78,12.39,4.9.39,3.74-3,7-8.29,8.66-8.61,2.92-22.89-.3-25.69-10C17.26,14.78,31.1,7.55,32.49,6.88s1.59-1.81-.43-1.31C24.4,7.45,12.6,13.86,12.51,25.81c-.07,9.28,11,21.2,29.17,20.85C54.84,46.41,69.16,38.73,69.15,25,69.13,15.2,59,7.8,46.68,6.76Z"/><path class="cls-4" d="M29.42,7.45c-7.64,2.66-15.47,9.61-15.54,18.21S24.28,45.47,41.58,45.15c12.49-.23,26.25-7.41,26-20.22-.18-8.36-9.64-16.13-21.21-16.78-12.8-.72-17.88,6.73-13,10.87,2.16,1.85,5.77,2.32,9.14,1.23,4.86-1.58,13.25-.15,13.58,6.18.3,5.61-4.17,8.8-9.39,10.42-9.37,3.2-24.9-.17-27.94-10.75-2.24-7.8,4.66-14.84,11-18.75Z"/><path class="cls-5" d="M33.38,15.93c.85,3.43,5,3.94,9.48,2.6,5.66-1.7,13.55.43,14.72,6.54,1.34,7-5.17,11.86-10.54,13.36-9.64,3-25.46-.2-29-9.87-1.79-4.93-2-9.49,4.57-16.65-3.1,2.27-7.52,7.34-7.2,13.8.4,8,9.83,18.34,26.17,18C53.4,43.53,66.39,36.88,66.13,25,66,17.28,57,10.28,46.1,9.41,37.52,8.72,32.64,12.92,33.38,15.93Z"/><path class="cls-6" d="M35.26,15.1c-.09,2.83,3.2,2.87,8.46,1.66,6.39-1.46,14.87.78,15.79,9.28.8,7.43-6.93,12.56-12,13.87C40.28,42,28,40.67,20.39,34.35l.09.12c7.43,6.87,13.57,8,21.4,7.82,11.05-.2,23-6.39,22.74-17.17-.16-7-8.65-13.32-18.85-14.27C40.86,10.39,35.35,12.18,35.26,15.1Z"/><path class="cls-7" d="M43.43,15.12c7.17-1.64,17,1.62,17.83,10.69.39,4.1-2.32,10-9,13.2l-.28.14C58.24,36.7,63,32,62.9,25.3,62.75,18.85,55.13,13,45.82,12.62c-3.17-.12-8.84.67-8.48,2.52C37.59,16.43,40.89,15.7,43.43,15.12Z"/><path class="cls-8" d="M6.24,29H9V34H9a3.72,3.72,0,0,1,3.18-1.5c2,0,4.17,1.62,4.17,5.3s-2.16,5.32-4.17,5.32a3.49,3.49,0,0,1-3.31-1.56h0v1.29H6.24Zm5,5.65c-1.64,0-2.36,1.54-2.36,3.23s.72,3.21,2.36,3.21,2.36-1.54,2.36-3.21S12.9,34.62,11.26,34.62Z"/><path class="cls-8" d="M26.88,42.88H24.25v-1.4H24.2a3.6,3.6,0,0,1-3.08,1.67c-2.94,0-3.68-1.65-3.68-4.15V32.81H20.2v5.69c0,1.66.49,2.48,1.77,2.48,1.5,0,2.14-.84,2.14-2.89V32.81h2.77Z"/><path class="cls-8" d="M34.47,44.14A3.16,3.16,0,0,1,31,46.42c-.56,0-1.13,0-1.69-.1V44a14.3,14.3,0,0,0,1.62.1,1.3,1.3,0,0,0,1-1.89l-3.55-9.45h3l2.28,6.89h0l2.2-6.89h2.87Z"/><path class="cls-8" d="M39.63,32.82h1.13v1.91h0a3.76,3.76,0,0,1,3.58-2.2c3.06,0,4.52,2.47,4.52,5.32s-1.46,5.32-4.52,5.32A3.59,3.59,0,0,1,40.89,41h0V46.6H39.63Zm4.75.74c-2.71,0-3.52,2-3.52,4.29,0,2.08.92,4.28,3.52,4.28,2.34,0,3.29-2.2,3.29-4.28S46.72,33.57,44.38,33.57Z"/><path class="cls-8" d="M50,35.9c.12-2.36,1.77-3.37,4.07-3.37,1.77,0,3.7.55,3.7,3.23V41.1a.65.65,0,0,0,.72.74,1.12,1.12,0,0,0,.39-.08v1a3.34,3.34,0,0,1-.8.08c-1.25,0-1.44-.7-1.44-1.75h0a3.83,3.83,0,0,1-3.66,2c-1.85,0-3.37-.91-3.37-2.94,0-2.83,2.75-2.92,5.4-3.23,1-.12,1.58-.25,1.58-1.37,0-1.66-1.19-2.06-2.63-2.06s-2.65.7-2.69,2.34Zm6.54,1.48h0c-.16.29-.7.39-1,.45-2.08.37-4.67.35-4.67,2.32a2.09,2.09,0,0,0,2.24,2A3.23,3.23,0,0,0,56.53,39Z"/><path class="cls-8" d="M66.14,35.77c-.06-1.52-1.23-2.2-2.63-2.2-1.09,0-2.38.43-2.38,1.73,0,1.09,1.25,1.48,2.09,1.7l1.64.37c1.4.21,2.86,1,2.86,2.79,0,2.18-2.17,3-4,3-2.34,0-3.93-1.09-4.13-3.54h1.23a2.65,2.65,0,0,0,3,2.51c1.15,0,2.75-.51,2.75-1.91,0-1.17-1.09-1.56-2.2-1.83L62.71,38c-1.6-.43-2.81-1-2.81-2.69,0-2,2-2.82,3.78-2.82,2,0,3.61,1.05,3.68,3.23Z"/><path class="cls-8" d="M75.41,35.77c-.06-1.52-1.23-2.2-2.63-2.2-1.09,0-2.38.43-2.38,1.73,0,1.09,1.25,1.48,2.08,1.7l1.64.37c1.41.21,2.86,1,2.86,2.79,0,2.18-2.16,3-4,3-2.34,0-3.94-1.09-4.13-3.54h1.23a2.65,2.65,0,0,0,3,2.51c1.15,0,2.75-.51,2.75-1.91,0-1.17-1.09-1.56-2.2-1.83L72,38c-1.6-.43-2.8-1-2.8-2.69,0-2,2-2.82,3.78-2.82,2,0,3.61,1.05,3.68,3.23Z"/><rect class="cls-2" x="1.89" y="3.84" width="79.71" height="44.23"/></svg>