<svg xmlns="http://www.w3.org/2000/svg" viewBox="0 0 80.13 50.25"><defs><style>.cls-1{fill:#ef482d;}.cls-2{fill:#fff;}.cls-3{opacity:0.54;}</style></defs><title>buypass_mobil</title><g id="Layer_1" data-name="Layer 1"><rect class="cls-1" x="-1.67" y="-1.83" width="82.83" height="53.67" rx="1.7" ry="1.7"/><path class="cls-2" d="M3.48,27.76H6.26v5.08h0a3.73,3.73,0,0,1,3.19-1.5c2,0,4.18,1.62,4.18,5.32S11.49,42,9.48,42a3.5,3.5,0,0,1-3.32-1.56h0v1.29H3.48Zm5,5.67c-1.64,0-2.37,1.54-2.37,3.25s.72,3.22,2.37,3.22,2.36-1.54,2.36-3.22S10.16,33.42,8.52,33.42Z"/><path class="cls-2" d="M24.19,41.71H21.55V40.3H21.5A3.61,3.61,0,0,1,18.41,42c-3,0-3.69-1.66-3.69-4.16V31.61h2.78v5.71c0,1.66.49,2.48,1.78,2.48,1.51,0,2.15-.84,2.15-2.89V31.61h2.78Z"/><path class="cls-2" d="M31.8,43a3.17,3.17,0,0,1-3.48,2.29c-.57,0-1.13,0-1.7-.1V42.88a14.23,14.23,0,0,0,1.62.1,1.31,1.31,0,0,0,1-1.9l-3.56-9.48h3l2.29,6.92h0l2.21-6.92H36Z"/><path class="cls-2" d="M37,31.62h1.13v1.92h0a3.77,3.77,0,0,1,3.6-2.21c3.07,0,4.54,2.48,4.54,5.34S44.82,42,41.75,42a3.6,3.6,0,0,1-3.5-2.21h0v5.65H37Zm4.77.74c-2.72,0-3.54,2-3.54,4.3,0,2.09.92,4.3,3.54,4.3,2.34,0,3.3-2.21,3.3-4.3S44.09,32.37,41.75,32.37Z"/><path class="cls-2" d="M47.37,34.71c.12-2.37,1.78-3.38,4.08-3.38,1.78,0,3.71.55,3.71,3.24v5.36a.66.66,0,0,0,.72.74,1.12,1.12,0,0,0,.39-.08v1a3.36,3.36,0,0,1-.8.08C54.23,41.71,54,41,54,40h0a3.84,3.84,0,0,1-3.67,2c-1.86,0-3.38-.92-3.38-3,0-2.83,2.76-2.93,5.42-3.24,1-.12,1.58-.26,1.58-1.37,0-1.66-1.19-2.07-2.64-2.07s-2.66.7-2.7,2.34Zm6.57,1.49h0c-.16.29-.7.39-1,.45C50.77,37,48.18,37,48.18,39a2.1,2.1,0,0,0,2.25,2,3.24,3.24,0,0,0,3.52-3.17Z"/><path class="cls-2" d="M63.58,34.58c-.06-1.52-1.23-2.21-2.64-2.21-1.1,0-2.38.43-2.38,1.74,0,1.09,1.25,1.49,2.09,1.7l1.64.37c1.41.22,2.87,1,2.87,2.79,0,2.19-2.17,3-4,3-2.34,0-3.95-1.09-4.14-3.56H58.2a2.66,2.66,0,0,0,3,2.52c1.15,0,2.76-.51,2.76-1.92,0-1.17-1.1-1.56-2.21-1.84l-1.58-.35c-1.6-.43-2.81-1-2.81-2.7,0-2.05,2-2.83,3.79-2.83,2,0,3.62,1.05,3.69,3.24Z"/><path class="cls-2" d="M72.88,34.58c-.06-1.52-1.24-2.21-2.64-2.21-1.09,0-2.38.43-2.38,1.74,0,1.09,1.25,1.49,2.09,1.7l1.64.37c1.41.22,2.87,1,2.87,2.79,0,2.19-2.17,3-4,3-2.35,0-3.95-1.09-4.14-3.56H67.5a2.66,2.66,0,0,0,3,2.52c1.15,0,2.76-.51,2.76-1.92,0-1.17-1.1-1.56-2.21-1.84l-1.58-.35c-1.6-.43-2.81-1-2.81-2.7,0-2.05,2-2.83,3.79-2.83,2,0,3.62,1.05,3.69,3.24Z"/></g><g id="Layer_2" data-name="Layer 2"><g class="cls-3"><path class="cls-2" d="M11.81,24.48h0C11.9,13.16,23,7.24,30.12,5.47h0a3,3,0,0,1,.8-.09h0c.44,0,.71.18.71.44h0c0,.35-.44.8-1.06,1.06h0c-1.15.53-11.67,6-11.67,14.24h0A8.2,8.2,0,0,0,19.33,24h0c1.95,6.81,10.08,10.17,17.42,10.17h0a19.9,19.9,0,0,0,6.28-1h0c4.69-1.42,7.69-4.25,7.69-7.43h0v-.53h0c-.35-3.71-3.71-5.13-7.25-5.13h0a16.29,16.29,0,0,0-4.16.62h0a10.42,10.42,0,0,1-3.1.44H36c-3.89-.18-7.87-2.12-8-6.28h0v-.27h0c0-4.6,5.66-8.23,13.53-8.23h0a20.77,20.77,0,0,1,2.3.09h0v.18a19.24,19.24,0,0,0-2.21-.09h0c-7.87,0-13.36,3.63-13.36,8h0v.27h0c.18,4,4,5.93,7.78,6.1H36a11.25,11.25,0,0,0,3.27-.44h0a13.16,13.16,0,0,1,4.16-.62h0c3.54,0,7.08,1.42,7.52,5.31h0v.53h0c0,3.36-3.1,6.19-7.78,7.61h0a20.89,20.89,0,0,1-6.37,1h0c-7.34,0-15.65-3.36-17.6-10.26h0a11.12,11.12,0,0,1-.44-2.92h0c0-8.4,10.61-13.89,11.76-14.5h0c.62-.27,1-.71.88-.88h0c0-.09-.09-.27-.53-.27h0a3,3,0,0,0-.8.09h0C23,7.33,12.08,13.25,12,24.22h0v.09h0c0,8.4,9.91,19.19,26.27,19.19H39c12.21-.27,25.38-7.34,25.38-20h0c0-9-9.38-15.92-20.78-16.89h0V6.44c11.5,1,21,7.87,21,17.07h0c0,12.82-13.36,20-25.65,20.17h-.71c-16.36.18-26.36-10.61-26.36-19.19Z"/><path class="cls-2" d="M13,24.31h0c.09-8.23,7.43-14.68,14.59-17.25h0L27.82,7l.18.44c-5,3.1-10.52,8.4-10.52,14.42h0a9.73,9.73,0,0,0,.35,2.74h0C20,31.91,28.62,35.45,36.58,35.45h0a22.25,22.25,0,0,0,7-1.06h0c4.69-1.42,8.58-4.25,8.58-9h0v-.44h0c-.18-4.25-4.6-6.1-8.67-6.1h0a11.58,11.58,0,0,0-3.63.53h0a11.67,11.67,0,0,1-3.45.53h0a8.34,8.34,0,0,1-5.31-1.77h0a4.58,4.58,0,0,1-1.77-3.45h0c0-3.54,4.51-7.08,12.47-7.08h0a9.61,9.61,0,0,1,1.59.09h0c10.79.62,19.72,7.87,19.9,15.83h0v.35h0c0,11.85-12.82,18.48-24.32,18.66h-.71C22.52,42.62,13,32.44,13,24.31Zm.44-.09h0c0,7.87,9.29,17.87,24.85,17.87H39c11.41-.18,24-6.72,23.88-18.22h0v-.35h0C62.67,15.9,54,8.74,43.39,8.12h0c-.53,0-1.06-.09-1.59-.09h0c-7.87,0-12,3.54-12,6.63h0a4,4,0,0,0,1.59,3.1h0a7.57,7.57,0,0,0,5,1.59h0a10.55,10.55,0,0,0,3.27-.53h0a13.18,13.18,0,0,1,3.8-.53h0c4.16,0,8.84,1.86,9.11,6.54h0v.53h0c0,5-4.16,8-8.93,9.38h0a22.81,22.81,0,0,1-7.08,1.06h0c-8,0-17-3.63-19.1-11.23h0a11.12,11.12,0,0,1-.44-2.92h0c0-5.57,4.42-10.35,8.93-13.62h0c-6.28,3-12.38,9-12.47,16.19Z"/><path class="cls-2" d="M14.38,24.31v-.62h0c0-5.84,4-10.35,6.81-12.47h0a.31.31,0,0,1,.44.09h0a.39.39,0,0,1,0,.44h0C17.74,16,16.5,19.18,16.5,22.1h0a13.16,13.16,0,0,0,1,4.78h0c2.39,6.63,11.32,10,19.46,10h0a25.33,25.33,0,0,0,7.08-1h0c4.51-1.24,9.73-5,9.73-10.44h0a12.08,12.08,0,0,0-.18-1.68h0c-.8-4.25-5.31-6.37-9.64-6.37h0a12.41,12.41,0,0,0-3.63.53h0a13.25,13.25,0,0,1-4,.62h0c-2.48,0-4.6-1-5.22-3.27h0a1.51,1.51,0,0,1-.09-.62h0c.09-2.83,4-5.84,10.52-5.84h0a12.46,12.46,0,0,1,1.77.09h0c10.26.8,18.75,7.34,18.93,14.86h0v.35h0c0,11.06-12.21,17.16-23.08,17.42h-.62c-15.12-.18-23.79-9.73-24.15-17.25Zm.53-.62v.62h0c.35,7.16,8.67,16.45,23.35,16.45h.62c10.79-.18,22.55-6.19,22.46-16.8h0V23.6h0C61.25,16.61,53,10.16,43,9.36h0a11.28,11.28,0,0,0-1.68-.09h0A13.8,13.8,0,0,0,34,11h0c-1.68,1.06-2.56,2.39-2.56,3.45h0a1.12,1.12,0,0,0,.09.53h0l-.27.09.27-.09c.53,1.95,2.21,2.83,4.6,2.83h0a12.18,12.18,0,0,0,3.8-.62h0a13.18,13.18,0,0,1,3.8-.53h0c4.6,0,9.38,2.21,10.26,6.81h0a12,12,0,0,1,.18,1.77h0c0,5.84-5.57,9.73-10.17,11h0a24,24,0,0,1-7.25,1h0c-8.23,0-17.42-3.36-20-10.35h0a14.29,14.29,0,0,1-1.06-5h0A12.34,12.34,0,0,1,17.92,15h0a15.72,15.72,0,0,0-3,8.67Z"/><path class="cls-2" d="M19,32.71l-.09-.09c-.09-.18-.09-.44.09-.53h0c.18-.18.44-.18.53,0h0c5,4.07,12.12,5.93,18.22,5.93h0a25.26,25.26,0,0,0,6.63-.8h0c4.33-1.15,10.88-5.48,10.88-11.5h0a3.63,3.63,0,0,0-.09-1h0c-.71-6.19-5.75-8.58-10.79-8.67h0a14,14,0,0,0-3.36.35h0a22.93,22.93,0,0,1-4.86.71h0a5.14,5.14,0,0,1-2.48-.53h0a2.4,2.4,0,0,1-1-2h0v-.09h0c.18-2.92,4.51-4.42,8.76-4.42h0a8.58,8.58,0,0,1,1.5.09h0C52.59,11,60.64,17,60.81,23.87h0v.27h0c0,10.17-11.23,15.92-21.58,16.1H38c-6.72-.09-12.38-1.42-19-7.52Zm19.1,6.54h1.06c10.08-.18,20.78-5.75,20.7-15.21h0v-.27h0c-.09-6.19-7.78-12-17.16-12.82h0c-.44,0-1-.09-1.42-.09h0a12.9,12.9,0,0,0-5.48,1.06h0c-1.5.71-2.39,1.59-2.39,2.56h0v.09h0c0,1.24.71,1.68,2.65,1.68h0a21.54,21.54,0,0,0,4.69-.71h0a15.49,15.49,0,0,1,3.54-.35h0c5.31,0,11,2.65,11.67,9.38h0c0,.35.09.71.09,1.06h0c0,6.72-6.9,11.14-11.5,12.29h0a26.48,26.48,0,0,1-6.81.88h0a32.42,32.42,0,0,1-12.38-2.39h0c4.16,2.3,8.14,2.83,12.74,2.83Z"/><path class="cls-2" d="M50.38,36a.48.48,0,0,1,.18-.71h0c4.69-3.18,6.1-7.08,6.1-10.26h0v-.71h0c-.35-6.81-7.08-9.82-12.74-9.82h0a11.87,11.87,0,0,0-3.1.35h0a20.07,20.07,0,0,1-4.33.71h0c-.8,0-1.77-.18-1.95-1.06h0v-.27h0c.09-1.33,1.5-1.77,2.92-2.12h0a22.76,22.76,0,0,1,4.86-.53h.62c8.84.35,16.19,6,16.45,12.38h0v.27h0c0,3.8-2.12,8.67-8.31,11.85h0c-.09,0-.18.09-.27.09h0a.32.32,0,0,1-.44-.18Zm.71.18-.27-.44.27.44ZM57.63,24.4v.71h0a11.54,11.54,0,0,1-1.33,5.4h0a10.7,10.7,0,0,0,2-6.19h0V24h0c-.18-5.57-7.08-11.14-15.48-11.41h-.62c-2.12,0-5.13.44-6.28,1.15h0c-.44.27-.53.44-.44.53h0v.09h0c0,.09,0,.09.18.18h0a2,2,0,0,0,.8.09h0A18.75,18.75,0,0,0,40.56,14h0a13.26,13.26,0,0,1,3.27-.35h0c6,0,13.36,3.18,13.8,10.79Z"/></g><path class="cls-2" d="M74.43,5.73H67.09a2.19,2.19,0,0,0-2.21,2.21V24.13a2.19,2.19,0,0,0,2.21,2.21h7.34a2.19,2.19,0,0,0,2.21-2.21V7.94a2.25,2.25,0,0,0-2.21-2.21ZM70.81,25.46A1.15,1.15,0,1,1,72,24.31a1.24,1.24,0,0,1-1.15,1.15Zm3.8-3.36H66.92V8.39a.57.57,0,0,1,.53-.53h6.63a.57.57,0,0,1,.53.53Z"/></g></svg>