<?xml version="1.0" encoding="utf-8"?>
<!-- Generator: Adobe Illustrator 21.0.0, SVG Export Plug-In . SVG Version: 6.00 Build 0)  -->
<svg version="1.1" id="Layer_1" xmlns="http://www.w3.org/2000/svg" xmlns:xlink="http://www.w3.org/1999/xlink" x="0px" y="0px"
	 viewBox="0 0 22 22" style="enable-background:new 0 0 22 22;" xml:space="preserve">
<style type="text/css">
	.st0{fill:none;}
	.st1{fill:#056DFF;}
	.st2{fill:#FFFFFF;}
	.st3{fill:#D2D2D2;}
</style>
<title>Artboard 2 copy 4@2x36w</title>
<path class="st0" d="M16.7,2.8H4.8c-1.3,0-2.4,1.1-2.4,2.4v11.9c0,1.3,1.1,2.4,2.4,2.4h11.9c1.3,0,2.4-1.1,2.4-2.4V5.2
	C19.1,3.9,18,2.8,16.7,2.8z"/>
<path class="st1" d="M16.7,2.8H4.8c-1.3,0-2.4,1.1-2.4,2.4v11.9c0,1.3,1.1,2.4,2.4,2.4h11.9c1.3,0,2.4-1.1,2.4-2.4V5.2
	C19.1,3.9,18,2.8,16.7,2.8z"/>
<path class="st2" d="M16.7,1.8H4.8c-1.9,0-3.4,1.5-3.4,3.4v11.9c0,1.9,1.5,3.4,3.4,3.4h11.9c1.9,0,3.4-1.5,3.4-3.4V5.2
	C20.1,3.4,18.6,1.8,16.7,1.8z M19.1,17.2c0,1.3-1.1,2.4-2.4,2.4H4.8c-1.3,0-2.4-1.1-2.4-2.4V5.2c0-1.3,1.1-2.4,2.4-2.4h11.9
	c1.3,0,2.4,1.1,2.4,2.4V17.2z"/>
<path class="st3" d="M16.7,0.8H4.8c-2.4,0-4.4,2-4.4,4.4v11.9c0,2.4,2,4.4,4.4,4.4h11.9c2.4,0,4.4-2,4.4-4.4V5.2
	C21.1,2.8,19.1,0.8,16.7,0.8z M20.1,17.2c0,1.9-1.5,3.4-3.4,3.4H4.8c-1.9,0-3.4-1.5-3.4-3.4V5.2c0-1.9,1.5-3.4,3.4-3.4h11.9
	c1.9,0,3.4,1.5,3.4,3.4V17.2z"/>
<polygon class="st2" points="11.6,14.2 9.3,16.5 4.1,11.3 6.4,9 9.3,11.9 15.9,5.3 18.2,7.7 "/>
</svg>
