<svg xmlns="http://www.w3.org/2000/svg" viewBox="0 0 80.13 50.25"><defs><style>.cls-1{fill:#fff;}.cls-2{fill:#004875;}.cls-3{fill:#b2cadb;}</style></defs><title>Commfides</title><g id="Layer_1" data-name="Layer 1"><rect class="cls-1" x="-1.75" y="-3.75" width="86.25" height="57.75"/></g><g id="Layer_2" data-name="Layer 2"><path class="cls-2" d="M11.25,24.19a4.58,4.58,0,0,0-2.4-.72,2.65,2.65,0,0,0-2.78,2.66,2.6,2.6,0,0,0,2.82,2.64A4.56,4.56,0,0,0,11.32,28v1.09a5.1,5.1,0,0,1-2.52.61A3.56,3.56,0,0,1,5,26.22a3.63,3.63,0,0,1,3.82-3.67,6,6,0,0,1,2.39.57Z"/><path class="cls-2" d="M17.08,22.55a3.58,3.58,0,1,1,0,7.14,3.57,3.57,0,1,1,0-7.14Zm0,6.22a2.65,2.65,0,1,0,0-5.31,2.65,2.65,0,1,0,0,5.31Z"/><path class="cls-2" d="M29.52,29.6h-1V24.18h0l-2.14,2.69H26.2l-2.14-2.69h0V29.6H23v-7H24l2.31,2.86,2.32-2.86h.93Z"/><path class="cls-2" d="M39.53,29.6h-1V24.18h0l-2.14,2.69h-.16l-2.14-2.69h0V29.6H33v-7H34l2.31,2.86,2.32-2.86h.93Z"/><path class="cls-2" d="M46.8,23.54H44.08v1.93H46.8v.9H44.08V29.6h-1v-7H46.8Z"/><path class="cls-2" d="M50.91,29.6h-1v-7h1Z"/><path class="cls-2" d="M54.5,22.64h2.7a3.44,3.44,0,0,1,3.7,3.48,3.52,3.52,0,0,1-3.69,3.48H54.5v-7Zm1,6.06h1.59a2.56,2.56,0,0,0,2.79-2.58A2.52,2.52,0,0,0,57,23.54H55.5V28.7Z"/><path class="cls-2" d="M67.31,23.54H64.36v2.1h2.85v.9H64.36V28.7h3v.9h-4v-7h3.95v.9Z"/><path class="cls-2" d="M73.81,24.17a2.34,2.34,0,0,0-1.63-.72c-.64,0-1.1.34-1.1.83,0,1.34,3,1.32,3,3.53a1.86,1.86,0,0,1-1.95,1.89A3.07,3.07,0,0,1,70.19,29V27.78a2.35,2.35,0,0,0,1.84,1c.78,0,1.13-.49,1.13-.88,0-1.44-3-1.6-3-3.51a1.87,1.87,0,0,1,2.11-1.86,2.78,2.78,0,0,1,1.55.49Z"/><rect class="cls-3" x="21.83" y="17.41" width="35.42" height="1.46"/><rect class="cls-3" x="21.83" y="33.35" width="35.42" height="1.46"/></g></svg>