<svg id="Layer_1" data-name="Layer 1" xmlns="http://www.w3.org/2000/svg" viewBox="0 0 81.92 42.66"><defs><style>.cls-1{fill:#bb202d;}.cls-2{fill:#424143;}.cls-3{fill:#fff;}</style></defs><title>eBoks</title><path class="cls-1" d="M18.7,26.07a1.86,1.86,0,0,1-.34,1.14,6.24,6.24,0,0,1-1,1,2.42,2.42,0,0,1-1.33.4H6.68a2.43,2.43,0,0,1-1.34-.4,6.24,6.24,0,0,1-1-1,1.83,1.83,0,0,1-.34-1V16.4a1.87,1.87,0,0,1,.34-1.14,6.09,6.09,0,0,1,1-1,2.46,2.46,0,0,1,1.38-.4H16a2.46,2.46,0,0,1,1.38.4,6.1,6.1,0,0,1,1,1,1.87,1.87,0,0,1,.34,1.14Z"/><path class="cls-2" d="M38.56,19.24A2.54,2.54,0,0,0,37,18.79H34.82a2.54,2.54,0,0,0-1.55.46,6.1,6.1,0,0,0-1.14,1.16,1.68,1.68,0,0,0-.3,1.08v3.1a1.67,1.67,0,0,0,.3,1.08,6.1,6.1,0,0,0,1.14,1.16,2.54,2.54,0,0,0,1.55.46H37a2.54,2.54,0,0,0,1.55-.46,6.1,6.1,0,0,0,1.14-1.16,1.67,1.67,0,0,0,.3-1.08v-3.1a1.68,1.68,0,0,0-.3-1.08A6.11,6.11,0,0,0,38.56,19.24Zm-.26,5.16a.73.73,0,0,1-.12.46,3.13,3.13,0,0,1-.7.66.82.82,0,0,1-.46.12h-2.2a.82.82,0,0,1-.46-.12,3.12,3.12,0,0,1-.7-.66.73.73,0,0,1-.12-.46V21.67a.73.73,0,0,1,.12-.46,3.12,3.12,0,0,1,.7-.66.82.82,0,0,1,.46-.12H37a.82.82,0,0,1,.46.12,3.13,3.13,0,0,1,.7.66.73.73,0,0,1,.12.46Z"/><path class="cls-2" d="M29.16,15.65a2.53,2.53,0,0,0-1.55-.46H21.74a.17.17,0,0,0-.18.18V27.11a.17.17,0,0,0,.18.18h5.87a2.53,2.53,0,0,0,1.55-.45,6.28,6.28,0,0,0,1.17-1.16,1.68,1.68,0,0,0,.3-1.08V22.84a2,2,0,0,0-.81-1.59.18.18,0,0,1,0-.11.19.19,0,0,1,.07-.14,2,2,0,0,0,.79-1.56V17.89a1.68,1.68,0,0,0-.3-1.08A6.26,6.26,0,0,0,29.16,15.65Zm-.23,8.76a.73.73,0,0,1-.12.46,3.11,3.11,0,0,1-.7.66.82.82,0,0,1-.46.12H23.44a.18.18,0,0,1-.17-.17V22.11a.18.18,0,0,1,.17-.18h4.43a.71.71,0,0,1,.38.1,2.69,2.69,0,0,1,.57.55.61.61,0,0,1,.1.38Zm0-5.12a.61.61,0,0,1-.1.38,2.7,2.7,0,0,1-.57.55.71.71,0,0,1-.38.1H23.44a.18.18,0,0,1-.17-.18V17a.18.18,0,0,1,.17-.18h4.21a.82.82,0,0,1,.46.12,3.12,3.12,0,0,1,.7.66.73.73,0,0,1,.12.46Z"/><path class="cls-2" d="M49,19.07c.12-.12.07-.29-.1-.29H47.16a.43.43,0,0,0-.3.15l-2.75,2.75a.45.45,0,0,1-.38.17h-.6a.2.2,0,0,1-.22-.21V15.4a.19.19,0,0,0-.21-.21H41.41a.19.19,0,0,0-.21.21V27.07a.19.19,0,0,0,.21.21h1.28a.19.19,0,0,0,.21-.21V23.7a.2.2,0,0,1,.22-.21h.69a.39.39,0,0,1,.33.14L47,27.14a.36.36,0,0,0,.29.14h1.62A.16.16,0,0,0,49,27l-3.49-4.21a.19.19,0,0,1-.05-.13.21.21,0,0,1,.07-.14Z"/><path class="cls-2" d="M59.88,25.36a.31.31,0,0,0-.24-.09H58.46a.31.31,0,0,0-.24.09l-.08.08a.31.31,0,0,0-.09.24v1.18a.31.31,0,0,0,.09.24l.08.08a.31.31,0,0,0,.24.09h1.18a.31.31,0,0,0,.24-.09l.08-.08a.31.31,0,0,0,.09-.24V25.69a.31.31,0,0,0-.09-.24Z"/><path class="cls-2" d="M55.19,22.35l-3.87-.19c-.27,0-.43-.16-.43-.4v-.4A.55.55,0,0,1,51,21a2.09,2.09,0,0,1,.53-.5.62.62,0,0,1,.36-.09h2.31a.84.84,0,0,1,.5.13,3.15,3.15,0,0,1,.75.77.27.27,0,0,0,.34.11L57,21a.2.2,0,0,0,.09-.32,5.52,5.52,0,0,0-1.28-1.44,2.54,2.54,0,0,0-1.55-.46H51.87a2.31,2.31,0,0,0-1.4.41,5.44,5.44,0,0,0-1,1,1.52,1.52,0,0,0-.27,1v.66a1.9,1.9,0,0,0,2,1.89L55,24c.27,0,.43.16.43.4v.35a.49.49,0,0,1-.09.33,2.34,2.34,0,0,1-.53.52.66.66,0,0,1-.36.09h-2.4a.85.85,0,0,1-.5-.13,3.14,3.14,0,0,1-.75-.76.27.27,0,0,0-.34-.11l-1.2.44a.19.19,0,0,0-.09.32,5.5,5.5,0,0,0,1.28,1.43,2.54,2.54,0,0,0,1.55.45h2.44a2.31,2.31,0,0,0,1.4-.41,5.45,5.45,0,0,0,1-1,1.49,1.49,0,0,0,.27-1v-.61A1.9,1.9,0,0,0,55.19,22.35Z"/><path class="cls-3" d="M14.89,18.27a5.71,5.71,0,0,0-1-1,2.25,2.25,0,0,0-1.38-.4h-2.2a2.25,2.25,0,0,0-1.38.4,5.78,5.78,0,0,0-1,1,1.48,1.48,0,0,0-.27,1v4a1.48,1.48,0,0,0,.27,1,5.75,5.75,0,0,0,1,1,2.25,2.25,0,0,0,1.38.4h2.26a2.26,2.26,0,0,0,1.37-.4A5,5,0,0,0,15.05,24a.17.17,0,0,0-.08-.28l-1.06-.39a.24.24,0,0,0-.3.09,2.72,2.72,0,0,1-.67.68.76.76,0,0,1-.44.11H10.38a.76.76,0,0,1-.44-.11,2.87,2.87,0,0,1-.68-.64A.73.73,0,0,1,9.14,23v-.81A.2.2,0,0,1,9.35,22h5.58a.21.21,0,0,0,.23-.24V19.23A1.48,1.48,0,0,0,14.89,18.27Zm-1.29,2.08a.2.2,0,0,1-.21.22h-4a.2.2,0,0,1-.21-.22v-.85A.73.73,0,0,1,9.26,19a2.87,2.87,0,0,1,.68-.64.76.76,0,0,1,.44-.11h2a.76.76,0,0,1,.44.11,2.86,2.86,0,0,1,.67.64.73.73,0,0,1,.11.44Z"/><path class="cls-2" d="M78,20.4a6.11,6.11,0,0,0-1.14-1.16,2.54,2.54,0,0,0-1.55-.46H73.1a2.53,2.53,0,0,0-1.55.46,6.09,6.09,0,0,0-1.14,1.16,1.68,1.68,0,0,0-.3,1.08v3.11a1.68,1.68,0,0,0,.3,1.08,6.09,6.09,0,0,0,1.14,1.16,2.53,2.53,0,0,0,1.55.46h2.18a2.54,2.54,0,0,0,1.55-.46A6.1,6.1,0,0,0,78,25.67a1.68,1.68,0,0,0,.3-1.08V21.48A1.68,1.68,0,0,0,78,20.4Zm-1.4,4a.73.73,0,0,1-.12.46,3.13,3.13,0,0,1-.7.66.82.82,0,0,1-.46.12h-2.2a.82.82,0,0,1-.46-.12,3.12,3.12,0,0,1-.7-.66.73.73,0,0,1-.12-.46V21.67a.73.73,0,0,1,.12-.46,3.11,3.11,0,0,1,.7-.66.82.82,0,0,1,.46-.12h2.2a.82.82,0,0,1,.46.12,3.13,3.13,0,0,1,.7.66.73.73,0,0,1,.12.46Z"/><path class="cls-2" d="M68.89,21.48a1.68,1.68,0,0,0-.3-1.08,6.1,6.1,0,0,0-1.14-1.16,2.54,2.54,0,0,0-1.55-.46H64.13a2.13,2.13,0,0,0-1.36.63c-.11.09-.21.06-.22-.07l-.06-.39c0-.09-.05-.17-.21-.17H61c-.14,0-.21.08-.19.24l.09.85c0,.31,0,.91,0,1.32v5.88a.19.19,0,0,0,.21.21h1.29a.19.19,0,0,0,.21-.21V21.59a.38.38,0,0,1,.15-.31l1-.73a.56.56,0,0,1,.37-.12h1.76a.82.82,0,0,1,.46.12,3.11,3.11,0,0,1,.7.66.73.73,0,0,1,.12.46v5.41a.19.19,0,0,0,.21.21h1.29a.19.19,0,0,0,.21-.21Z"/></svg>