<svg id="Layer_1" data-name="Layer 1" xmlns="http://www.w3.org/2000/svg" viewBox="0 0 80.13 50.25"><defs><style>.cls-1{fill:#fcfcfc;}.cls-2{fill:#717073;}.cls-3{fill:#c41230;}</style></defs><title>MinId</title><rect class="cls-1" y="0.13" width="80.13" height="50.24"/><path class="cls-2" d="M27.19,32.66c0,.16-.16.32-.48.32H24.49c-.16,0-.32-.16-.48-.32l-1-13.31h-.63L19.26,29.81c0,.16-.16.32-.48.32H15.93c-.32,0-.48-.16-.48-.32l-3-10.46h-.63l-1,13.31c0,.16-.16.32-.48.32H8.33c-.16,0-.48-.16-.48-.32h0L9.12,17.61c0-.16.16-.32.48-.32h4.91c.16,0,.32.16.48.32l2.54,9.51h.16l2.69-9.51c0-.16.16-.32.48-.32H25.6c.16,0,.32.16.48.32l1.11,15.05Z"/><path class="cls-2" d="M33,20.3H31.31a.42.42,0,0,1-.48-.48V17.45a.42.42,0,0,1,.48-.48H33a.42.42,0,0,1,.48.48v2.38a.42.42,0,0,1-.48.48M33.21,33H31a.34.34,0,0,1-.32-.32V22.2a.34.34,0,0,1,.32-.32h2.22a.34.34,0,0,1,.32.32V32.66c0,.32-.16.32-.32.32"/><path class="cls-2" d="M46.68,33H44.46a.34.34,0,0,1-.32-.32V25.05c0-1.27-.48-1.74-1.58-1.74a14.59,14.59,0,0,0-2.69.32V32.5a.34.34,0,0,1-.32.32H37.33A.34.34,0,0,1,37,32.5V23.31c0-.79.48-1.11,1.58-1.43a17.36,17.36,0,0,1,4.28-.63c2.69,0,4.12.63,4.12,3.33V32.5c0,.48-.16.48-.32.48"/><path class="cls-3" d="M53.33,33H51a.34.34,0,0,1-.32-.32V17.45a.34.34,0,0,1,.32-.32l2.38-.32h0a.34.34,0,0,1,.32.32V32.66c0,.32-.16.32-.32.32"/><path class="cls-3" d="M64.27,19.35H60.94V30.76h3.33c3.17,0,4.44-1,4.44-5.7s-1.27-5.7-4.44-5.7M64.59,33h-6.5a.34.34,0,0,1-.32-.32V17.45a.34.34,0,0,1,.32-.32h6.5c5.23,0,7.29,2.06,7.29,7.92,0,6-2.06,7.92-7.29,7.92"/></svg>