<?xml version="1.0" encoding="utf-8"?>
<!-- Generator: Adobe Illustrator 21.1.0, SVG Export Plug-In . SVG Version: 6.00 Build 0)  -->
<svg version="1.1" id="Layer_1" xmlns="http://www.w3.org/2000/svg" xmlns:xlink="http://www.w3.org/1999/xlink" x="0px" y="0px"
	 viewBox="0 0 58 26" style="enable-background:new 0 0 58 26;" xml:space="preserve">
<style type="text/css">
	.st0{fill:#FFFFFF;stroke:#CCCCCB;stroke-miterlimit:10;}
	.st1{clip-path:url(#SVGID_2_);fill:#717073;}
	.st2{clip-path:url(#SVGID_2_);fill:#C41230;}
</style>
<path class="st0" d="M56.5,25.5H1.5c-0.6,0-1-0.5-1-1v-23c0-0.6,0.4-1,1-1h54.9c0.5,0,1,0.4,1,1v23C57.5,25,57,25.5,56.5,25.5z"/>
<g>
	<defs>
		<rect id="SVGID_1_" x="9" y="7.4" width="41.9" height="12"/>
	</defs>
	<clipPath id="SVGID_2_">
		<use xlink:href="#SVGID_1_"  style="overflow:visible;"/>
	</clipPath>
	<path class="st1" d="M21.8,17.6c0,0.1-0.1,0.2-0.3,0.2h-1.4c-0.1,0-0.2-0.1-0.3-0.2l-0.6-8.4h-0.4l-2,6.6c0,0.1-0.1,0.2-0.3,0.2
		h-1.8c-0.2,0-0.3-0.1-0.3-0.2l-1.9-6.6h-0.4l-0.6,8.4c0,0.1-0.1,0.2-0.3,0.2H9.9c-0.1,0-0.3-0.1-0.3-0.2c0,0,0,0,0,0l0.8-9.5
		c0-0.1,0.1-0.2,0.3-0.2h3.1c0.1,0,0.2,0.1,0.3,0.2l1.6,6h0.1l1.7-6c0-0.1,0.1-0.2,0.3-0.2h3c0.1,0,0.2,0.1,0.3,0.2L21.8,17.6
		L21.8,17.6z"/>
	<path class="st1" d="M25.5,9.8h-1.1c-0.2,0-0.3-0.1-0.3-0.3V8c0-0.2,0.1-0.3,0.3-0.3h1.1c0.2,0,0.3,0.1,0.3,0.3v1.5
		C25.8,9.7,25.7,9.8,25.5,9.8 M25.6,17.8h-1.4c-0.1,0-0.2-0.1-0.2-0.2V11c0-0.1,0.1-0.2,0.2-0.2h1.4c0.1,0,0.2,0.1,0.2,0.2v6.6
		C25.8,17.8,25.7,17.8,25.6,17.8"/>
	<path class="st1" d="M34.1,17.8h-1.4c-0.1,0-0.2-0.1-0.2-0.2v-4.8c0-0.8-0.3-1.1-1-1.1c-0.8,0-1.7,0.2-1.7,0.2v5.6
		c0,0.1-0.1,0.2-0.2,0.2h-1.4c-0.1,0-0.2-0.1-0.2-0.2v-5.8c0-0.5,0.3-0.7,1-0.9c0.7-0.2,1.8-0.4,2.7-0.4c1.7,0,2.6,0.4,2.6,2.1v5
		C34.3,17.8,34.2,17.8,34.1,17.8"/>
	<path class="st2" d="M38.3,17.8h-1.5c-0.1,0-0.2-0.1-0.2-0.2V8c0-0.1,0.1-0.2,0.2-0.2l1.5-0.2h0c0.1,0,0.2,0.1,0.2,0.2v9.8
		C38.5,17.8,38.4,17.8,38.3,17.8"/>
	<path class="st2" d="M45.2,9.2h-2.1v7.2h2.1c2,0,2.8-0.6,2.8-3.6C48,9.8,47.2,9.2,45.2,9.2 M45.4,17.8h-4.1c-0.1,0-0.2-0.1-0.2-0.2
		V8c0-0.1,0.1-0.2,0.2-0.2h4.1c3.3,0,4.6,1.3,4.6,5C50,16.6,48.7,17.8,45.4,17.8"/>
</g>
</svg>
