<svg id="Layer_1" data-name="Layer 1" xmlns="http://www.w3.org/2000/svg" viewBox="0 0 81.92 42.66"><defs><style>.cls-1{fill:#e32d22;}.cls-2{fill:#bfc0c4;}</style></defs><title>Digipost_1</title><path class="cls-1" d="M31.51,20.83a4.22,4.22,0,0,0-2.84.88V21h-1.9V33h2.11v-3.6a3,3,0,0,0,2.39.8c3.53,0,3.92-2.48,3.92-4.69C35.19,22.66,34.76,20.87,31.51,20.83Zm-.34,7.54c-1.81,0-2.32-.54-2.32-2.82s.5-2.86,2.32-2.86c1.57,0,1.9.73,1.9,2.86S32.74,28.38,31.17,28.38Zm9.11-7.54a4.55,4.55,0,0,0-3.36,1c-.8.77-1,1.94-1,3.68s.17,2.91,1,3.68a4.55,4.55,0,0,0,3.36,1,4.57,4.57,0,0,0,3.36-1c.8-.77,1-1.94,1-3.68s-.17-2.91-1-3.68A4.58,4.58,0,0,0,40.28,20.83Zm0,7.54c-2,0-2.22-.78-2.22-2.84s.19-2.84,2.22-2.84,2.22.78,2.22,2.84S42.32,28.38,40.28,28.38Zm25.14-7.54c-3.66,0-4.18,2.09-4.18,4.82s.58,4.59,4.24,4.59c1.72,0,4-.43,4-2.88h-2c0,1-1.11,1.14-1.88,1.14-1.81,0-2.2-.62-2.2-2.17h6.24C69.59,23.17,69.4,20.83,65.42,20.83Zm-2,3.79c0-1.21.19-2.05,2-2.05s2.07.75,2.07,2.05Zm11.54-3.79a3.79,3.79,0,0,0-2.63.88V21H70.46v9.1h2.11V25.86c0-1.59-.17-3.16,2.11-3.16,1.83,0,1.66.84,1.66,2.6v4.8h2.11v-5C78.46,23.15,78.61,20.83,74.93,20.83ZM57.75,28.53c-1,0-1.15-.54-1.15-1.23V22.82h4.15V21H56.6V18.06H54.49V21H53.26v1.82h1.23V27.3c0,2,1.21,3,3.32,3,1.81,0,3-.69,3-2.88H58.86C58.83,28,58.7,28.55,57.75,28.53Zm-8.92-3.94c-.91-.06-1.51-.06-1.48-1.08,0-.6.17-1,2-1,1.23,0,1.62.3,1.62,1.18H52.9c0-2.17-1.32-2.84-3.58-2.88-2.43,0-4,.47-4.08,2.73-.06,2.8,2,2.73,4.07,2.84,1,.06,1.68.07,1.64,1.16,0,.65-.23,1.06-2,1-1.49,0-1.77-.41-1.77-1.2H45.2c0,2.24,1.43,2.84,3.73,2.88S53,29.71,53,27.46C53.11,24.55,50.92,24.72,48.83,24.59Z"/><path class="cls-1" d="M23.34,21A5.17,5.17,0,0,1,13,21H3.52a10.34,10.34,0,0,0,20.66,0Z"/><path class="cls-2" d="M13,20.17a5.17,5.17,0,0,1,10.3,0h.83a10.34,10.34,0,0,0-20.66,0Z"/></svg>