<?xml version="1.0" encoding="utf-8"?>
<!-- Generator: Adobe Illustrator 20.1.0, SVG Export Plug-In . SVG Version: 6.00 Build 0)  -->
<!DOCTYPE svg PUBLIC "-//W3C//DTD SVG 1.1//EN" "http://www.w3.org/Graphics/SVG/1.1/DTD/svg11.dtd">
<svg version="1.1" id="Layer_1" xmlns="http://www.w3.org/2000/svg" xmlns:xlink="http://www.w3.org/1999/xlink" x="0px" y="0px"
	 viewBox="0 0 64 64" style="enable-background:new 0 0 64 64;" xml:space="preserve">
<style type="text/css">
	.st0{fill:#FFFFFF;}
</style>
<path class="st0" d="M61.1,0H2.9C1.2,0,0,1.2,0,2.9v58.2C0,62.8,1.2,64,2.9,64h58.2c1.7,0,2.9-1.2,2.9-2.9V2.9C64,1.2,62.8,0,61.1,0
	z M27.4,40.8L27.4,40.8L20,50.7l0,0c-1,1.9,0.9,2.9,1.1,3h0v2.4H10c-0.4,0-0.8-0.3-0.8-0.8v-9c0,0,0,0,0.1,0
	c1.3-0.1,2.1-0.9,2.1-2.1v-7.7c0-0.4-0.1-0.8-0.4-1.1c-0.4-0.6-0.8-0.9-1.7-0.9c0,0,0,0-0.1,0V23.9h11.9v2.4c0,0,0,0,0,0
	c-0.2,0.1-2.4,1-1.6,2.8l0,0L27.4,40.8L27.4,40.8L27.4,40.8L27.4,40.8z M54.8,34.5C54.8,34.5,54.8,34.5,54.8,34.5
	c-0.9,0-1.3,0.3-1.8,0.9c-0.2,0.3-0.4,0.7-0.4,1.1v7.7c0,1.2,0.7,2.1,2.1,2.1c0,0,0,0,0.1,0v9c0,0.4-0.3,0.8-0.8,0.8H42.9v-2.4h0
	c0.2-0.1,2.2-1.1,1.1-3l0,0l-7.5-9.9l0,0l0,0l0,0l0,0l7.9-11.6l0,0c0.8-1.8-1.5-2.8-1.6-2.8c0,0,0,0,0,0v-2.4h11.9V34.5z M54.8,19.7
	H9.2v-9.4c0-1.3,1-2.4,2.2-2.6v0h6.2v5.6h9.2c0.5,0,0.7-0.2,0.7-0.7l0-4.9h9.1v4.9c0,0.5,0.2,0.7,0.7,0.7h9.1V7.8h5.9
	c1.4,0,2.5,1.2,2.5,2.6V19.7z"/>
</svg>
